<svg version="1.1" xmlns="http://www.w3.org/2000/svg" xmlns:xlink="http://www.w3.org/1999/xlink" x="0px" y="0px"
	 width="120px" height="120px" viewBox="0 0 74.167 74.167" style="enable-background:new 0 0 74.167 74.167;" xml:space="preserve">
<path d="M20.57,17.743c4.99,1.115,10.112,1.681,15.225,1.681s10.235-0.565,15.206-1.677
	c0.506-0.102,0.852-0.571,0.798-1.084C51.084,9.809,46.202,4.184,39.982,2.398v-1.19c0-0.552-0.448-1-1-1s-1,0.448-1,1v0.767
	c-0.72-0.106-1.448-0.178-2.19-0.178c-0.74,0-1.466,0.072-2.185,0.177V1.208c0-0.552-0.448-1-1-1s-1,0.448-1,1v1.189
	c-6.218,1.785-11.101,7.41-11.816,14.266C19.739,17.167,20.075,17.632,20.57,17.743z M31.607,4.493V7.59c0,0.552,0.448,1,1,1
	s1-0.448,1-1V3.992c0.717-0.121,1.447-0.195,2.19-0.195c0.741,0,1.469,0.074,2.185,0.194V7.59c0,0.552,0.448,1,1,1s1-0.448,1-1
	V4.492c4.927,1.64,8.805,6.059,9.708,11.492c-9.121,1.91-18.629,1.916-27.79,0C22.803,10.552,26.679,6.134,31.607,4.493z
	 M41.987,14.896c-2.029,0.454-4.112,0.684-6.192,0.684c-2.078,0-4.161-0.23-6.191-0.684c-0.539-0.121-0.878-0.655-0.758-1.194
	c0.121-0.539,0.657-0.876,1.193-0.758c3.779,0.844,7.742,0.843,11.512,0c0.538-0.119,1.074,0.219,1.194,0.758
	C42.865,14.24,42.526,14.775,41.987,14.896z M19.12,22.262c0.019-0.649,0.077-2.625,1.495-3.16c1.401-0.528,2.831,0.895,3.103,1.186
	c0.377,0.404,0.356,1.037-0.047,1.414c-0.404,0.376-1.037,0.356-1.414-0.047c-0.277-0.293-0.692-0.586-0.913-0.654
	c-0.068,0.129-0.2,0.485-0.225,1.321c-0.101,3.423,2.511,4.38,2.622,4.419c0.31,0.109,0.554,0.365,0.641,0.682l0.043,0.157
	c0.016,0.059,0.027,0.12,0.032,0.181c0.765,9.116,7.969,12.065,11.338,12.065s10.573-2.949,11.338-12.065
	c0.005-0.062,0.016-0.124,0.033-0.184l0.043-0.157c0.089-0.321,0.332-0.576,0.648-0.682c0.104-0.037,2.715-0.994,2.615-4.417
	c-0.025-0.836-0.157-1.191-0.225-1.321c-0.221,0.068-0.636,0.361-0.915,0.656c-0.379,0.4-1.011,0.419-1.413,0.042
	s-0.423-1.007-0.046-1.41c0.272-0.291,1.7-1.712,3.102-1.186c1.418,0.536,1.477,2.511,1.496,3.16
	c0.102,3.453-1.923,5.373-3.389,6.121c-0.999,9.267-8.316,13.441-13.287,13.441s-12.289-4.175-13.287-13.442
	C21.042,27.635,19.018,25.714,19.12,22.262z M57.804,62.328l-7.917-0.003c-1.985,0-5.681,0-5.681,5.817s3.695,5.817,5.68,5.817
	l7.919-0.003c3.206,0,5.814-2.608,5.814-5.814S61.01,62.328,57.804,62.328z M57.804,71.956l-7.919,0.003c-2.136,0-3.68,0-3.68-3.817
	c0-3.341,1.183-3.757,2.911-3.809v2.611c0,0.552,0.448,1,1,1s1-0.448,1-1v-2.618l2.134,0.001v2.617c0,0.552,0.448,1,1,1s1-0.448,1-1
	v-2.616l1.99,0.001v2.615c0,0.552,0.448,1,1,1c0.552,0,1-0.448,1-1v-2.33c1.393,0.569,2.378,1.934,2.378,3.529
	C61.618,70.245,59.907,71.956,57.804,71.956z M24.141,62.325l-7.917,0.003c-3.206,0-5.814,2.608-5.814,5.814
	s2.608,5.814,5.814,5.814l7.919,0.003c1.985,0,5.68,0,5.68-5.817S26.126,62.325,24.141,62.325z M24.142,71.958l-7.919-0.003
	c-2.103,0-3.814-1.711-3.814-3.814c0-1.595,0.986-2.96,2.378-3.529v2.33c0,0.552,0.448,1,1,1s1-0.448,1-1v-2.615l1.99-0.001v2.616
	c0,0.552,0.448,1,1,1s1-0.448,1-1v-2.617l2.134-0.001v2.618c0,0.552,0.448,1,1,1s1-0.448,1-1v-2.611
	c1.728,0.052,2.911,0.469,2.911,3.809C27.822,71.958,26.278,71.958,24.142,71.958z M43.333,68.142c0,0.552-0.448,1-1,1H32.256
	c-0.552,0-1-0.448-1-1s0.448-1,1-1h10.077C42.886,67.142,43.333,67.589,43.333,68.142z M6.146,61.768
	c0,0.725-0.588,1.313-1.313,1.313c-0.725,0-1.313-0.588-1.313-1.313c0-0.725,0.588-1.313,1.313-1.313
	C5.558,60.455,6.146,61.043,6.146,61.768z M73.167,50.672H65.5c-0.552,0-1,0.448-1,1v2.722H52.738l2.331-9.854
	c2.024,1.968,3.602,4.382,4.505,7.026c0.142,0.416,0.53,0.677,0.946,0.677c0.107,0,0.216-0.018,0.323-0.054
	c0.522-0.178,0.802-0.747,0.623-1.27c-1.962-5.747-6.785-10.529-12.591-12.492l0.046-0.834c0.03-0.551-0.393-1.023-0.944-1.053
	c-0.542-0.025-1.023,0.393-1.053,0.944l-0.255,4.655l-2.902-1.362c-0.5-0.235-1.095-0.021-1.33,0.48
	c-0.235,0.5-0.02,1.095,0.48,1.33l4.245,1.993c0.135,0.063,0.28,0.095,0.425,0.095c0.178,0,0.355-0.047,0.513-0.142
	c0.286-0.17,0.468-0.472,0.486-0.804l0.176-3.213c0.53,0.199,1.051,0.421,1.56,0.671l-2.185,9.056H23.011l-2.083-8.805
	c0.658-0.347,1.335-0.65,2.029-0.91l0.175,3.201c0.018,0.332,0.2,0.633,0.486,0.804c0.157,0.094,0.334,0.142,0.513,0.142
	c0.145,0,0.29-0.031,0.425-0.095l4.244-1.993c0.5-0.235,0.715-0.831,0.48-1.33c-0.235-0.5-0.831-0.715-1.33-0.48l-2.902,1.362
	l-0.255-4.655c-0.03-0.552-0.516-0.971-1.053-0.944c-0.551,0.03-0.974,0.502-0.944,1.053l0.046,0.835
	c-1.262,0.427-2.475,0.996-3.629,1.673c-0.012,0.008-0.025,0.014-0.036,0.023c-1.027,0.605-2.005,1.297-2.916,2.075
	c-0.006,0.005-0.011,0.011-0.017,0.015c-1.831,1.566-3.405,3.449-4.589,5.565c-0.565,1.01-1.038,2.066-1.405,3.141
	c-0.179,0.522,0.1,1.091,0.623,1.27c0.107,0.037,0.216,0.054,0.323,0.054c0.416,0,0.804-0.262,0.946-0.677
	c0.328-0.96,0.751-1.905,1.258-2.811c0.784-1.401,1.76-2.684,2.872-3.83l2.24,9.469H9.667v-2.722c0-0.552-0.448-1-1-1H1
	c-0.552,0-1,0.448-1,1v20.191c0,0.552,0.448,1,1,1h7.667c0.552,0,1-0.448,1-1V56.394H64.5v15.469c0,0.552,0.448,1,1,1h7.667
	c0.552,0,1-0.448,1-1V51.672C74.167,51.12,73.719,50.672,73.167,50.672z M7.667,70.863H6.121c-0.066-0.663-0.607-1.188-1.287-1.188
	c-0.681,0-1.221,0.524-1.287,1.188H2V52.672h1.544c0.062,0.667,0.606,1.195,1.289,1.195c0.683,0,1.227-0.528,1.289-1.195h1.544
	V70.863z M53.362,43.071l-2.679,11.323h-1.49l2.94-12.186C52.554,42.479,52.964,42.767,53.362,43.071z M47.655,52.243l-0.519,2.151
	H23.993l-0.509-2.151H47.655z M17.964,43.385c0.378-0.305,0.763-0.6,1.162-0.874l2.811,11.883h-1.369L17.964,43.385z M72.167,70.863
	h-1.546c-0.066-0.663-0.607-1.188-1.287-1.188c-0.681,0-1.221,0.524-1.287,1.188H66.5V52.672h1.544
	c0.062,0.667,0.606,1.195,1.289,1.195c0.683,0,1.227-0.528,1.289-1.195h1.544V70.863z M70.646,61.768
	c0,0.725-0.588,1.313-1.313,1.313c-0.725,0-1.313-0.588-1.313-1.313c0-0.725,0.588-1.313,1.313-1.313
	C70.058,60.455,70.646,61.043,70.646,61.768z M25.023,21.306c-0.552,0-1,0.448-1,1c0,2.744,0.584,4.81,1.736,6.14
	c1.005,1.16,2.395,1.749,4.128,1.749c0,0,0,0,0,0c2.403,0,4.862-1.165,5.91-1.728c1.045,0.554,3.489,1.696,5.882,1.696
	c2.199,0,5.887-1.021,5.887-7.856c0-0.552-0.448-1-1-1H25.023z M41.68,28.162c-2.527,0-5.339-1.681-5.367-1.698
	c-0.319-0.193-0.722-0.193-1.042,0.003c-0.028,0.017-2.841,1.727-5.383,1.727c0,0,0,0-0.001,0c-1.144,0-2-0.346-2.617-1.058
	c-0.7-0.808-1.108-2.093-1.217-3.83h19.482C45.22,28.163,42.583,28.162,41.68,28.162z"/>
</svg>