<svg version="1.1" xmlns="http://www.w3.org/2000/svg" xmlns:xlink="http://www.w3.org/1999/xlink" x="0px" y="0px"
	 width="120px" height="120px" viewBox="0 0 74.167 74.167" style="enable-background:new 0 0 74.167 74.167;" xml:space="preserve">
<path d="M6.381,28.807c-1.714-0.571-4.918-2.91-4.778-7.675c0.022-0.766,0.092-3.096,1.701-3.704
	c1.601-0.604,3.271,1.07,3.59,1.411c0.377,0.403,0.355,1.036-0.048,1.414c-0.401,0.377-1.034,0.357-1.413-0.047
	c-0.507-0.536-1.227-0.96-1.426-0.905c0.004,0-0.358,0.3-0.404,1.891c-0.133,4.486,3.375,5.708,3.411,5.719
	c0.523,0.175,0.807,0.741,0.632,1.265c-0.139,0.419-0.529,0.685-0.948,0.685C6.593,28.859,6.486,28.842,6.381,28.807z M20.6,18.298
	c0,0.552,0.447,1,1,1h2.25v5.875c0,0.552,0.447,1,1,1s1-0.448,1-1v-6.875c0-0.552-0.447-1-1-1H21.6
	C21.048,17.298,20.6,17.746,20.6,18.298z M19.757,18.298c0-0.552-0.447-1-1-1H8.895c-0.553,0-1,0.448-1,1s0.447,1,1,1h9.861
	C19.309,19.298,19.757,18.851,19.757,18.298z M11.765,41.433c3.346,0,5.935-0.965,7.694-2.869c1.827-1.975,2.261-4.446,2.35-5.837
	h2.016c0.553,0,1-0.448,1-1v-3.471c0-0.552-0.447-1-1-1s-1,0.448-1,1v2.471H20.82c-0.277,0-0.543,0.117-0.732,0.32
	c-0.188,0.204-0.285,0.478-0.265,0.755c0.001,0.02,0.082,1.3-0.376,2.795c-1.922-0.461-4.722-1.536-4.722-2.987c0-0.552-0.447-1-1-1
	s-1,0.448-1,1c0,2.893,3.75,4.279,5.862,4.832c-0.177,0.267-0.376,0.529-0.607,0.777c-1.366,1.469-3.457,2.213-6.214,2.213
	c-0.553,0-1,0.448-1,1S11.213,41.433,11.765,41.433z M41.194,45.089l-23.433,0c-2.231,0.077-8.474-0.146-10.457-2.063
	c-0.359-0.348-0.527-0.709-0.527-1.137c0-0.552-0.447-1-1-1s-1,0.448-1,1c0,0.979,0.383,1.846,1.138,2.576
	c2.474,2.391,8.566,2.638,10.965,2.638c0.455,0,0.776-0.009,0.916-0.014h23.398c0.553,0,1-0.448,1-1S41.747,45.089,41.194,45.089z
	 M41.194,53.333L17.22,53.335c-0.07,0.004-7.021,0.541-7.021,9.438v10.394c0,0.552,0.447,1,1,1s1-0.448,1-1V62.773
	c0-6.975,4.941-7.426,5.083-7.44h23.911c0.553,0,1-0.448,1-1S41.747,53.333,41.194,53.333z M72.569,30.05c0,0.552-0.447,1-1,1h-3.75
	v1.283c0,0.552-0.447,1-1,1h-2.687c-0.012,1.442-0.185,2.487-0.202,2.591c-0.084,0.478-0.5,0.827-0.985,0.827H52.729v3.965
	c0.695,0.235,1.266,0.571,1.712,1.019c1.268,1.275,1.258,3.08,1.249,4.672l-0.001,7.507c0,3.206-2.608,5.814-5.814,5.814
	c-3.205,0-5.813-2.608-5.813-5.814l-0.002-7.508c-0.008-1.592-0.019-3.396,1.25-4.671c0.446-0.448,1.017-0.785,1.712-1.019v-3.965
	h-5.827c-0.553,0-1-0.448-1-1V24.349c0-0.552,0.447-1,1-1h14.75c2.583,0,4.609,0.854,6.022,2.537
	c0.369,0.44,0.676,0.917,0.934,1.416c0.077-0.019,0.15-0.047,0.233-0.047h3.686c0.553,0,1,0.448,1,1v0.795h3.75
	C72.122,29.05,72.569,29.498,72.569,30.05z M53.023,43.146c-0.548-0.55-1.606-0.83-3.148-0.83c-1.541,0-2.601,0.279-3.147,0.83
	c-0.682,0.685-0.675,1.931-0.668,3.25l0.002,7.52c0,2.103,1.711,3.814,3.813,3.814c1.595,0,2.96-0.986,3.529-2.378h-2.33
	c-0.553,0-1-0.448-1-1s0.447-1,1-1h2.615l0.001-1.99h-2.616c-0.553,0-1-0.448-1-1s0.447-1,1-1h2.616l0.001-2.134h-2.617
	c-0.553,0-1-0.448-1-1s0.447-1,1-1h2.601C53.636,44.373,53.497,43.623,53.023,43.146z M50.729,36.751h-1.708v3.595
	c0.273-0.018,0.556-0.03,0.854-0.03c0.298,0,0.581,0.012,0.854,0.03V36.751z M60.432,27.168c-1.03-1.224-2.499-1.819-4.488-1.819
	h-13.75v9.402h5.827h3.708h10.33C62.211,33.105,62.303,29.392,60.432,27.168z M65.819,29.255h-1.686v2.078h1.686V29.255z M71.569,0
	c-0.553,0-1,0.448-1,1v23.349c0,0.552,0.447,1,1,1s1-0.448,1-1V1C72.569,0.448,72.122,0,71.569,0z M71.569,34.083
	c-0.553,0-1,0.448-1,1V72.5c0,0.552,0.447,1,1,1s1-0.448,1-1V35.083C72.569,34.531,72.122,34.083,71.569,34.083z M66.737,26.062
	c0.183,0.142,0.399,0.211,0.613,0.211c0.298,0,0.593-0.133,0.79-0.386c0.339-0.436,0.261-1.064-0.175-1.403l-2.375-1.848
	c-0.436-0.34-1.064-0.26-1.403,0.175c-0.339,0.436-0.261,1.064,0.175,1.403L66.737,26.062z M66.737,34.962l-2.375,1.848
	c-0.436,0.339-0.514,0.967-0.175,1.403c0.197,0.253,0.492,0.386,0.79,0.386c0.214,0,0.431-0.069,0.613-0.211l2.375-1.848
	c0.436-0.339,0.514-0.967,0.175-1.403C67.803,34.702,67.175,34.623,66.737,34.962z M47.319,26.924h-3.292
	c-0.276,0-0.5,0.224-0.5,0.5s0.224,0.5,0.5,0.5h3.292c0.276,0,0.5-0.224,0.5-0.5S47.595,26.924,47.319,26.924z M47.319,28.586
	h-3.292c-0.276,0-0.5,0.224-0.5,0.5s0.224,0.5,0.5,0.5h3.292c0.276,0,0.5-0.224,0.5-0.5S47.595,28.586,47.319,28.586z M2.598,12.458
	c-0.553,0-1,0.448-1,1s0.447,1,1,1H21.6c0.545,0,0.989-0.436,1-0.981c0.003-0.18,0.031-3.045-1.034-6.084h1.128c0.553,0,1-0.448,1-1
	s-0.447-1-1-1h-1.998c-0.476-0.889-1.067-1.746-1.81-2.504c-1.826-1.862-4.222-2.806-7.12-2.806H2.598c-0.553,0-1,0.448-1,1
	s0.447,1,1,1h9.167c2.338,0,4.251,0.74,5.687,2.2c0.338,0.343,0.631,0.719,0.9,1.109H2.598c-0.553,0-1,0.448-1,1s0.447,1,1,1h16.828
	c0.791,1.928,1.052,3.917,1.135,5.065H2.598z"/>
</svg>