<?xml version="1.0" encoding="utf-8"?>
<svg version="1.1" baseProfile="tiny" id="Layer_1" xmlns="http://www.w3.org/2000/svg" xmlns:xlink="http://www.w3.org/1999/xlink"
	 x="0px" y="0px" width="270px" height="174px" viewBox="0 0 341 174" xml:space="preserve">
<g>
<path fill-rule="evenodd" opacity="0.502" fill="#000000"
 d="M271.609,100.024 L270.565,95.901 L279.750,90.229 L281.602,91.788 L278.445,101.294 L271.609,100.024 ZM331.549,23.555 L324.461,25.089 L324.721,31.017 L317.878,39.254 L317.616,29.987 L326.549,19.426 L321.042,20.208 L313.937,25.872 L305.250,25.353 L298.691,31.536 L303.414,34.875 L297.909,49.806 L293.177,50.590 L290.282,54.704 L291.586,60.112 L288.177,61.909 L287.117,57.028 L284.221,53.162 L280.272,57.260 L283.421,66.007 L278.967,73.997 L269.228,74.508 L267.140,77.862 L271.593,84.293 L266.862,88.160 L262.017,83.232 L261.853,87.888 L266.079,92.531 L267.914,100.766 L273.184,102.580 L280.289,105.399 L267.140,103.091 L261.609,97.946 L256.632,90.989 L263.444,94.327 L260.295,88.680 L259.651,80.979 L256.632,81.721 L252.945,74.004 L242.684,80.963 L242.684,85.372 L238.996,88.951 L234.274,77.368 L229.029,71.184 L216.401,68.859 L212.722,65.792 L210.878,66.814 L213.513,72.998 L217.706,70.937 L223.237,75.051 L206.955,84.573 L198.520,68.356 L196.758,68.660 L205.356,87.920 L213.766,84.053 L211.147,93.074 L202.729,100.543 L204.035,111.607 L199.304,115.210 L190.641,131.172 L181.953,132.714 L174.342,114.691 L176.186,106.454 L171.459,92.035 L155.421,93.065 L146.469,84.565 L148.055,70.665 L156.735,60.367 L173.547,57.547 L174.607,61.909 L181.439,66.279 L184.065,62.684 L194.506,65.305 L197.215,63.706 L198.398,59.864 L191.179,58.682 L188.846,54.727 L187.149,53.881 L185.665,58.890 L182.459,54.911 L182.679,51.588 L178.404,48.257 L175.859,47.003 L176.080,50.342 L181.406,53.872 L178.617,57.021 L174.799,52.012 L172.038,48.872 L165.647,52.012 L161.176,58.890 L154.369,57.851 L153.945,49.520 L162.657,50.126 L159.908,45.764 L158.195,42.217 L164.794,40.124 L168.412,35.346 L171.394,35.123 L170.749,32.415 L172.662,29.915 L174.158,34.077 L182.451,34.285 L184.784,28.436 L187.998,29.491 L186.920,25.536 L191.864,23.979 L190.330,22.197 L185.852,23.435 L184.277,19.697 L184.065,19.673 L184.188,19.409 L183.527,17.827 L185.322,16.573 L186.896,12.651 L185.224,12.403 L182.459,15.743 L180.118,20.735 L182.687,23.435 L180.118,30.114 L176.284,31.576 L174.158,24.906 L169.680,27.405 L167.560,26.159 L167.759,19.697 L171.602,16.789 L174.799,9.072 L182.891,4.710 L203.088,8.345 C226.386,5.948 268.648,1.555 268.648,1.555 L338.385,11.197 L341.020,18.403 L331.549,23.555 ZM193.740,45.557 L190.330,51.388 L191.815,54.080 L198.210,53.050 L202.885,54.304 L204.802,51.180 L193.740,45.557 ZM215.879,47.625 L215.879,44.510 L209.271,48.049 L211.604,53.881 L210.560,57.843 L216.491,58.251 L215.455,51.796 L213.309,48.672 L215.879,47.625 ZM158.195,31.617 L158.195,24.115 L156.498,29.116 L152.656,29.116 L152.872,25.169 L156.074,21.391 L155.866,18.499 L159.263,16.182 L165.019,27.030 L163.518,29.331 L158.195,31.617 ZM125.175,29.148 L122.160,30.961 L121.809,38.766 L117.355,37.687 L107.942,13.681 L115.267,6.028 L121.189,7.618 L126.288,16.142 L128.457,20.464 L125.350,26.183 L125.175,29.148 ZM99.466,60.479 L89.841,65.600 L82.222,75.809 L82.222,80.922 L79.408,81.306 L77.422,75.809 L66.589,77.383 L64.182,84.053 L66.981,87.992 L70.982,84.844 L74.999,85.228 L72.992,90.821 L77.797,91.140 L79.408,97.020 L82.650,98.074 L85.041,94.264 L101.086,95.838 L111.894,103.707 L113.521,109.978 L127.556,116.664 L119.537,132.754 L111.511,133.944 L110.291,140.231 L93.851,153.988 L86.235,168.111 L91.839,174.015 L82.643,171.651 L79.408,163.789 L88.630,127.265 L81.007,120.587 L77.422,106.462 L81.733,99.560 L77.797,100.159 L72.201,93.089 L67.380,90.733 L56.156,86.802 L46.917,72.663 L41.309,62.453 L41.309,48.704 L32.087,33.390 L20.448,26.303 L13.228,30.242 L-0.003,36.529 L8.407,29.851 L3.187,28.668 L1.208,21.989 L7.212,17.268 L1.208,16.494 L2.395,12.171 L6.812,12.171 L2.803,6.276 L13.628,-0.011 L33.283,10.598 L40.527,3.919 L56.156,12.962 L86.235,9.799 L86.235,24.738 L74.203,27.087 L71.793,33.390 L83.425,45.557 L86.235,45.165 L88.222,29.851 L95.873,29.467 L99.055,38.087 L103.072,35.738 L111.894,55.007 L99.466,60.479 ZM212.037,108.068 L212.893,112.239 L209.492,122.240 L206.065,120.794 L206.286,112.438 L212.037,108.068 ZM311.303,106.966 L305.511,103.371 L303.798,104.920 L299.727,104.649 L292.630,97.444 L298.153,96.940 L308.937,102.077 L311.303,106.966 ZM303.945,53.153 L303.414,59.856 L292.377,66.287 L292.639,62.428 L298.683,58.059 L303.414,48.264 L303.684,39.006 L305.519,39.006 L306.302,42.090 L304.744,47.514 L307.616,49.815 L303.945,53.153 ZM283.437,114.427 L291.619,106.973 L297.933,107.485 L296.872,111.081 L302.640,113.141 L303.505,106.471 L307.877,114.427 L314.990,121.377 L312.363,135.254 L307.607,138.089 L301.049,136.284 L299.475,131.611 L297.109,132.898 L292.117,130.062 L279.245,133.177 L276.071,131.388 L276.862,129.071 L274.758,117.519 L283.437,114.427 ZM333.915,132.458 L337.846,135.550 L340.212,135.813 L336.525,140.686 L331.810,147.645 L326.556,147.125 L334.698,139.655 L333.915,132.458 Z"/>
</g>
<g>
	<circle id="_01" fill="#1a1a1a" cx="54.5" cy="54" r="4"/>
</g>
<g>
	<circle id="_01_1_" fill="none" stroke="#fcd846" stroke-width="2" stroke-linejoin="round" cx="54.5" cy="54" r="4"/>
</g>
<g>
	<circle id="_02" fill="#1a1a1a" cx="106.5" cy="122" r="4"/>
</g>
<g>
	<circle id="_02_1_" fill="none" stroke="#fcd846" stroke-width="2" stroke-linejoin="round" cx="106.5" cy="122" r="4"/>
</g>
<g>
	<circle id="_03" fill="#1a1a1a" cx="186.5" cy="40" r="4"/>
</g>
<g>
	<circle id="_03_1_" fill="none" stroke="#fcd846" stroke-width="2" stroke-linejoin="round" cx="186.5" cy="40" r="4"/>
</g>
<g>
	<circle id="_04" fill="#1a1a1a" cx="216.5" cy="16" r="4"/>
</g>
<g>
	<circle id="_04_1_" fill="none" stroke="#fcd846" stroke-width="2" stroke-linejoin="round" cx="216.5" cy="16" r="4"/>
</g>
<g>
	<circle id="_05" fill="#1a1a1a" cx="276.5" cy="43" r="4"/>
</g>
<g>
	<circle id="_05_1_" fill="none" stroke="#fcd846" stroke-width="2" stroke-linejoin="round" cx="276.5" cy="43" r="4"/>
</g>
<g>
	<circle id="_06" fill="#1a1a1a" cx="286.5" cy="120" r="4"/>
</g>
<g>
	<circle id="_06_1_" fill="none" stroke="#fcd846" stroke-width="2" stroke-linejoin="round" cx="286.5" cy="120" r="4"/>
</g>
</svg>
